<?xml version="1.0" standalone="no"?><!DOCTYPE svg PUBLIC "-//W3C//DTD SVG 1.1//EN" "http://www.w3.org/Graphics/SVG/1.1/DTD/svg11.dtd"><svg t="1611990709015" class="icon" viewBox="0 0 1024 1024" version="1.1" xmlns="http://www.w3.org/2000/svg" p-id="3291" xmlns:xlink="http://www.w3.org/1999/xlink" width="200" height="200"><defs><style type="text/css"></style></defs><path d="M607.9487105096482 87.80569916049393c-12.624830184865184-42.92442290470979-50.499322120301564-73.2240156245544-95.94871050964805-73.2240156245544-45.44938977018732 0-85.8488471902604 32.82455958532214-95.94871050964805 78.27394797466863-141.3981002798354 42.92442290470979-242.39674313959767 174.2226598651575-242.39674313959767 323.19565797974377v166.64776064956578c-47.974355254824026 30.299592719844608-80.79891484014617 85.8488471902604-80.79891484014617 141.3981002798354v2.524965484636708c0 22.72469488509366 5.049932350114237 45.44938977018732 12.624830184865184 65.64911917064428l2.524965484636708 2.524965484636708c7.574897834750945 15.149797050342714 20.19972801961613 27.774627235207902 37.874491935436374 30.299592719844608 7.574897834750945 2.524965484636708 15.149797050342714 5.049932350114237 20.19972801961613 5.049932350114237h686.7907733795606c5.049932350114237 0 10.099864700228474 0 12.624830184865184-2.524965484636708 20.19972801961613-2.524965484636708 37.87449055459556-15.149797050342714 45.44938977018732-32.82455958532214 10.099864700228474-20.19972801961613 15.149797050342714-45.44938977018732 15.14979566950189-68.17408465528098v-2.524965484636708c0-50.499322120301564-22.72469488509366-98.4736773751256-63.12415092432592-131.2982355796069v-179.27259221527177c0-154.02293046470055-106.04857520987652-287.84613290978496-255.02157470530366-325.7206234643806z m270.1713703748056 636.2914512592594v2.524965484636708c0 17.674762534979426-2.524965484636708 32.82455958532214-10.099864700228474 47.97435663566486 0 2.524965484636708-2.524965484636708 2.524965484636708-5.049930969273416 5.049930969273416-2.524965484636708 0-5.049932350114237 0-7.574899215591769 2.524966865477531H168.60461400064003h-2.524966865477531c-2.524965484636708 0-2.524965484636708-2.524965484636708-5.049932350114237-2.524966865477531s-5.049932350114237-2.524965484636708-5.049930969273416-2.524965484636708v-2.524965484636708c-5.049932350114237-15.149797050342714-10.099864700228474-30.299592719844608-10.099864700228474-45.44938977018732v-2.524966865477531c0-45.44938977018732 25.249660369730368-85.8488471902604 65.64911778980346-106.04857520987652 7.574897834750945-5.049932350114237 15.149797050342714-12.624830184865184 15.149797050342714-22.72469350425284v-181.79755769990842c0-131.2982355796069 93.42374502501137-247.4466754897119 219.67204825450403-277.7462682095565 12.624830184865184-2.524965484636708 20.19972801961613-12.624830184865184 20.19972801961613-25.24966175057119 0-25.249660369730368 20.19972801961613-45.44938977018732 45.44938977018732-45.4493883893465s45.44938977018732 20.19972801961613 47.974355254824026 45.4493883893465c0 10.099864700228474 10.099864700228474 20.19972801961613 20.19972940045695 22.72469488509366 133.82320244508443 25.249660369730368 232.29687843936918 141.3981002798354 232.29687843936918 280.2712350750341v191.8974210192961c0 7.574897834750945 5.049932350114237 15.149797050342714 10.099864700228474 20.19972940045695 35.34952506995885 20.19972801961613 55.54925308957499 58.07421995505251 55.54925308957499 95.94871050964805zM615.5236097252398 880.6450477499311c0-15.149797050342714-10.099864700228474-25.249660369730368-25.24966175057119-25.24966175057119s-25.249660369730368 12.624830184865184-25.249660369730368 25.24966175057119c0 30.299592719844608-22.72469488509366 53.02428760493826-53.02428760493826 53.02428760493826-30.299592719844608 0-53.02428760493826-22.72469488509366-53.02428760493826-53.02428760493826 0-15.149797050342714-10.099864700228474-25.249660369730368-25.249660369730368-25.24966175057119s-25.249660369730368 12.624830184865184-25.24966175057119 25.24966175057119c0 58.07421995505251 45.44938977018732 103.52360972523984 103.52360972523984 103.52360834439901s103.52360972523984-45.44938977018732 103.52360972523984-103.52360834439901z" fill="#cdcdcd" p-id="3292"></path></svg>