<?xml version="1.0" standalone="no"?><!DOCTYPE svg PUBLIC "-//W3C//DTD SVG 1.1//EN" "http://www.w3.org/Graphics/SVG/1.1/DTD/svg11.dtd"><svg t="1611987831685" class="icon" viewBox="0 0 1024 1024" version="1.1" xmlns="http://www.w3.org/2000/svg" p-id="1997" xmlns:xlink="http://www.w3.org/1999/xlink" width="200" height="200"><defs><style type="text/css"></style></defs><path d="M832 874.666667c-23.466667 0-42.666667-19.2-42.666667-42.666667v-74.666667c0-64-53.333333-117.333333-117.333333-117.333333h-320c-64 0-117.333333 53.333333-117.333333 117.333333V832c0 23.466667-19.2 42.666667-42.666667 42.666667s-42.666667-19.2-42.666667-42.666667v-74.666667c0-110.933333 91.733333-202.666667 202.666667-202.666666h320c110.933333 0 202.666667 91.733333 202.666667 202.666666V832c0 23.466667-19.2 42.666667-42.666667 42.666667zM512 482.133333c-106.666667 0-192-85.333333-192-192s85.333333-192 192-192 192 85.333333 192 192-85.333333 192-192 192z m0-298.666666c-59.733333 0-106.666667 46.933333-106.666667 106.666666s46.933333 106.666667 106.666667 106.666667 106.666667-46.933333 106.666667-106.666667-46.933333-106.666667-106.666667-106.666666z" p-id="1998" fill="#bfbfbf"></path></svg>